<svg id="Layer_1" height="512" viewBox="0 0 24 24" width="512" xmlns="http://www.w3.org/2000/svg" xmlns:xlink="http://www.w3.org/1999/xlink" data-name="Layer 1"><linearGradient id="linear-gradient" gradientUnits="userSpaceOnUse" x1="2" x2="22" y1="12" y2="12"><stop offset="0" stop-color="#29abe2"/><stop offset="1" stop-color="#39b54a"/></linearGradient><path d="m11.54932 4.52051v4.50781a2.52378 2.52378 0 0 1 -2.52051 2.52148h-4.50781a2.52388 2.52388 0 0 1 -2.521-2.52148v-4.50781a2.52368 2.52368 0 0 1 2.521-2.52051h4.50781a2.52357 2.52357 0 0 1 2.52051 2.52051zm5.67578 7.0293a4.7749 4.7749 0 1 0 -4.77441-4.77539 4.78083 4.78083 0 0 0 4.77441 4.77538zm-8.19629.90039h-4.50781a2.52388 2.52388 0 0 0 -2.521 2.52148v4.50781a2.52368 2.52368 0 0 0 2.521 2.52051h4.50781a2.52357 2.52357 0 0 0 2.52051-2.52051v-4.50781a2.52378 2.52378 0 0 0 -2.52051-2.52148zm10.4502 0h-4.50782a2.52378 2.52378 0 0 0 -2.52051 2.52148v4.50781a2.52357 2.52357 0 0 0 2.52051 2.52051h4.50781a2.52368 2.52368 0 0 0 2.521-2.52051v-4.50781a2.52388 2.52388 0 0 0 -2.521-2.52148z" fill="url(#linear-gradient)"/></svg>