<svg width="31" height="32" viewBox="0 0 31 32" fill="none" xmlns="http://www.w3.org/2000/svg">
<path d="M16.5 11.2385V18.45" stroke="white" stroke-width="2.5" stroke-linecap="round" stroke-linejoin="round"/>
<path d="M18.8438 19.051C18.8438 20.3454 17.7944 21.3947 16.5 21.3947C15.2056 21.3947 14.1562 20.3454 14.1562 19.051C14.1562 17.7565 15.2056 16.7072 16.5 16.7072C17.7944 16.7072 18.8438 17.7565 18.8438 19.051Z" fill="white"/>
<path d="M12.6698 5.58037C15.0481 4.24262 17.9519 4.24262 20.3302 5.58037L25.0177 8.21709C27.4776 9.60083 29 12.2038 29 15.0263V19.9505C29 22.773 27.4776 25.376 25.0177 26.7597L20.3302 29.3964C17.9519 30.7342 15.0481 30.7342 12.6698 29.3964L7.98233 26.7597C5.52236 25.376 4 22.773 4 19.9505V15.0263C4 12.2038 5.52236 9.60083 7.98233 8.21709L12.6698 5.58037Z" stroke="white" stroke-width="2.5"/>
<path d="M7.125 4.98846L11.8125 1.86346" stroke="white" stroke-width="2.5" stroke-linecap="round"/>
<path d="M25.875 4.98846L21.1875 1.86346" stroke="white" stroke-width="2.5" stroke-linecap="round"/>
</svg>
